<?xml version="1.0" encoding="UTF-8"?>
<svg version="1.1" xmlns="http://www.w3.org/2000/svg" width="248" height="241">
<path d="M0 0 C-1.53346876 11.91923446 -9.50452306 21.94494263 -18.80078125 29.1796875 C-21.16783614 30.8470048 -23.5511334 32.45603818 -26 34 C-22.30552446 36.46298369 -18.36881616 38.2905173 -14.35742188 40.16992188 C-3.73136295 45.32853606 3.14075254 54.19956948 7.15625 65.2421875 C12.87358921 83.92941659 12.27148508 102.77618472 3.40234375 120.43359375 C2.93957031 121.28050781 2.47679687 122.12742188 2 123 C1.48566406 123.96035156 0.97132813 124.92070312 0.44140625 125.91015625 C-12.72420981 149.4744806 -33.39106845 171.90643711 -55 188 C-55.69158203 188.51965332 -56.38316406 189.03930664 -57.09570312 189.57470703 C-59.47167488 191.35369344 -61.85832185 193.11719378 -64.25 194.875 C-65.00732422 195.43550049 -65.76464844 195.99600098 -66.54492188 196.57348633 C-71.98112706 200.50541178 -76.85561179 203.89518706 -83.75 204.125 C-97.44278445 201.62823508 -111.21080922 186.99711548 -121.1640625 177.6484375 C-123.75325534 175.23043096 -126.39511697 172.89330473 -129.0625 170.5625 C-149.93824597 151.71449368 -173.36747065 123.4251269 -175.11669922 94.03955078 C-175.83580979 77.97941477 -173.64806425 62.95511803 -163.75 49.6875 C-152.68341032 38.87242372 -139.63039497 33.70202038 -124.28930664 33.7578125 C-111.57295373 33.98732366 -98.06060637 38.47120212 -88.5625 47.25390625 C-87.7890625 48.11822266 -87.7890625 48.11822266 -87 49 C-87.07293848 33.82879534 -94.36533646 19.69073784 -104.75 9 C-106.78294485 7.0240536 -108.61208228 5.59194515 -111 4 C-111.54337501 0.42924991 -111.43720456 -1.33544906 -109.4375 -4.375 C-107 -6 -107 -6 -103.8125 -6.8125 C-96.41948397 -5.23693921 -91.89768825 1.48369843 -87.6875 7.4375 C-84.38552431 12.6709935 -81 18.70902477 -81 25 C-80.34 25 -79.68 25 -79 25 C-78.7215625 23.7934375 -78.7215625 23.7934375 -78.4375 22.5625 C-74.36280406 12.4643405 -64.85386792 2.68382867 -55 -2 C-36.51549297 -8.7278169 -17.86455203 -9.08898261 0 0 Z M-77 42 C-77 43.98 -77 45.96 -77 48 C-73.82010194 46.46205865 -70.78518026 44.743521 -67.75 42.9375 C-66.41195312 42.14666016 -66.41195312 42.14666016 -65.046875 41.33984375 C-64.37140625 40.89769531 -63.6959375 40.45554688 -63 40 C-63 39.67 -63 39.34 -63 39 C-68.06232884 38.51009721 -72.32630846 40.2893678 -77 42 Z " fill="#8D1420" transform="translate(208,28)"/>
<path d="M0 0 C-1.54467499 12.00633745 -9.53900942 21.63507032 -18.625 29.1796875 C-25.7115503 34.43132746 -25.7115503 34.43132746 -31 34 C-31 34.66 -31 35.32 -31 36 C-30.34 36 -29.68 36 -29 36 C-29.33 37.32 -29.66 38.64 -30 40 C-31.3317627 39.99214478 -31.3317627 39.99214478 -32.69042969 39.98413086 C-35.99284518 39.96706132 -39.29521359 39.95453637 -42.59765625 39.94506836 C-44.02539816 39.94004794 -45.45313496 39.93323028 -46.88085938 39.92456055 C-48.93621079 39.91239447 -50.99149407 39.90674872 -53.046875 39.90234375 C-54.28276367 39.89710693 -55.51865234 39.89187012 -56.79199219 39.88647461 C-59.43358184 39.97995552 -61.48354137 40.31051943 -64 41 C-65.33333333 40.66666667 -66.66666667 40.33333333 -68 40 C-70.15394917 40.29866236 -70.15394917 40.29866236 -72.25 40.9375 C-73.4875 41.288125 -74.725 41.63875 -76 42 C-76.33 43.98 -76.66 45.96 -77 48 C-76.34 48.33 -75.68 48.66 -75 49 C-76.2065625 49.4021875 -76.2065625 49.4021875 -77.4375 49.8125 C-78.7059375 50.4003125 -78.7059375 50.4003125 -80 51 C-80.33 51.99 -80.66 52.98 -81 54 C-81.94875 53.835 -82.8975 53.67 -83.875 53.5 C-88.1129061 52.82193502 -90.06621466 53.34366933 -94 55 C-93.67 53.35 -93.34 51.7 -93 50 C-94.98 50.33 -96.96 50.66 -99 51 C-99 50.34 -99 49.68 -99 49 C-100.65 49 -102.3 49 -104 49 C-103.21753906 49.47050781 -102.43507813 49.94101563 -101.62890625 50.42578125 C-100.61699219 51.04839844 -99.60507813 51.67101562 -98.5625 52.3125 C-97.04849609 53.23482422 -97.04849609 53.23482422 -95.50390625 54.17578125 C-93 56 -93 56 -92 59 C-90.515 59.495 -90.515 59.495 -89 60 C-85.91343927 65.83132111 -85.85181742 73.15824315 -87.72265625 79.41796875 C-90.16127208 84.68024501 -93.27697635 87.93848231 -98.765625 90.078125 C-105.41499669 91.97335654 -113.13343133 92.30212445 -119.5 89.3125 C-125.08256818 85.96295909 -128.37245134 81.94655749 -131 76 C-131.36351562 76.60328125 -131.72703125 77.2065625 -132.1015625 77.828125 C-135.23286254 82.80608916 -137.75241391 86.25694364 -143 89 C-143.66 89 -144.32 89 -145 89 C-145 89.66 -145 90.32 -145 91 C-143.515 91.495 -143.515 91.495 -142 92 C-142 92.66 -142 93.32 -142 94 C-141.071875 93.505 -141.071875 93.505 -140.125 93 C-133.67218326 90.93509864 -127.89167421 91.24979143 -121.6875 94 C-116.82546769 96.75642777 -113.72172343 99.60122903 -112 105 C-111.06975431 111.70447343 -111.08506678 118.31636397 -114.578125 124.27734375 C-117.22482021 127.48391679 -120.52001323 129.77010557 -124 132 C-123.34 132.33 -122.68 132.66 -122 133 C-122 134.32 -122 135.64 -122 137 C-120.75932897 136.37966449 -119.53348369 135.72731793 -118.3359375 135.02734375 C-113.5024985 132.34103005 -109.52828531 130.92654654 -104 132 C-99.1088329 133.77860622 -94.80226398 136.43537752 -91 140 C-91 140.66 -91 141.32 -91 142 C-90.34 142 -89.68 142 -89 142 C-86.20419674 148.98950816 -86.08785013 155.27323798 -88.94921875 162.17578125 C-91.39021647 166.41349848 -95.51883089 169.18829299 -100 171 C-102.875 171.265625 -102.875 171.265625 -106 171.25 C-107.546875 171.25773437 -107.546875 171.25773437 -109.125 171.265625 C-111.94597278 171.00499165 -113.60145718 170.45296344 -116 169 C-115.67 169.33 -115.34 169.66 -115 170 C-115 170.66 -115 171.32 -115 172 C-108.73 171.67 -102.46 171.34 -96 171 C-95.67 171.66 -95.34 172.32 -95 173 C-94.21625 172.360625 -93.4325 171.72125 -92.625 171.0625 C-88.31766442 167.6781649 -85.23403028 167.55295389 -79.83984375 167.57421875 C-75.37904146 168.2430323 -72.80926076 170.59001682 -70 174 C-68.36540787 177.26918427 -68.332849 180.47998423 -69 184 C-71.76194591 188.83579456 -75.69954794 192.23318265 -81 194 C-85.69651298 194.20419622 -87.9629238 192.39903797 -91.375 189.4375 C-92.59397082 188.3029897 -93.80595171 187.16071192 -95 186 C-95.99 187.98 -96.98 189.96 -98 192 C-96.35 192.33 -94.7 192.66 -93 193 C-92.9175 193.598125 -92.835 194.19625 -92.75 194.8125 C-91.75473074 197.71536869 -90.623556 198.44004778 -88 200 C-85.18170117 200.36100534 -85.18170117 200.36100534 -82.25 200.1875 C-81.26515625 200.16042969 -80.2803125 200.13335937 -79.265625 200.10546875 C-78.51796875 200.07066406 -77.7703125 200.03585938 -77 200 C-77 199.01 -77 198.02 -77 197 C-75.82851724 194.55766765 -74.40263342 192.32311159 -73 190 C-72.071875 190.165 -71.14375 190.33 -70.1875 190.5 C-67.04378647 191.07748388 -67.04378647 191.07748388 -64 191 C-62.28288757 188.55503957 -62.28288757 188.55503957 -61 186 C-60.67 186.66 -60.34 187.32 -60 188 C-59.34 188 -58.68 188 -58 188 C-58 187.01 -58 186.02 -58 185 C-56.35 184.67 -54.7 184.34 -53 184 C-54.40616187 187.35148093 -55.95374267 189.01190392 -58.88671875 191.12890625 C-59.66080078 191.68900391 -60.43488281 192.24910156 -61.23242188 192.82617188 C-62.04259766 193.39916016 -62.85277344 193.97214844 -63.6875 194.5625 C-64.47833984 195.13935547 -65.26917969 195.71621094 -66.08398438 196.31054688 C-71.66675113 200.30745751 -76.6992065 203.88997355 -83.75 204.125 C-97.44278445 201.62823508 -111.21080922 186.99711548 -121.1640625 177.6484375 C-123.75325534 175.23043096 -126.39511697 172.89330473 -129.0625 170.5625 C-149.93824597 151.71449368 -173.36747065 123.4251269 -175.11669922 94.03955078 C-175.83580979 77.97941477 -173.64806425 62.95511803 -163.75 49.6875 C-152.68341032 38.87242372 -139.63039497 33.70202038 -124.28930664 33.7578125 C-111.57295373 33.98732366 -98.06060637 38.47120212 -88.5625 47.25390625 C-87.7890625 48.11822266 -87.7890625 48.11822266 -87 49 C-87.07293848 33.82879534 -94.36533646 19.69073784 -104.75 9 C-106.78294485 7.0240536 -108.61208228 5.59194515 -111 4 C-111.54337501 0.42924991 -111.43720456 -1.33544906 -109.4375 -4.375 C-107 -6 -107 -6 -103.8125 -6.8125 C-96.41948397 -5.23693921 -91.89768825 1.48369843 -87.6875 7.4375 C-84.38552431 12.6709935 -81 18.70902477 -81 25 C-80.34 25 -79.68 25 -79 25 C-78.7215625 23.7934375 -78.7215625 23.7934375 -78.4375 22.5625 C-74.36280406 12.4643405 -64.85386792 2.68382867 -55 -2 C-36.51549297 -8.7278169 -17.86455203 -9.08898261 0 0 Z " fill="#8D1420" transform="translate(208,28)"/>
<path d="M0 0 C1.65 0 3.3 0 5 0 C4 3 4 3 2 4 C2.495 5.485 2.495 5.485 3 7 C2.18595703 7.74443359 2.18595703 7.74443359 1.35546875 8.50390625 C-4.28749864 13.86218339 -7.95076368 18.41864974 -8.5 26.4375 C-8.29890637 31.56101593 -6.41627429 35.22501691 -3 39 C3.32376616 43.88398011 10.23801371 44.82809242 18 44 C21.49526101 42.98555698 24.81166145 41.76485811 28 40 C28.495 39.01 28.495 39.01 29 38 C29.66 38 30.32 38 31 38 C32.49140021 34.37802806 33.7874262 30.72433382 35 27 C36.12264051 28.68396077 37.22704933 30.38169593 38.26171875 32.12109375 C42.08278865 38.32902376 45.32818344 41.56251798 52.4375 43.75 C52.953125 43.8325 53.46875 43.915 54 44 C54 44.66 54 45.32 54 46 C52.68 46 51.36 46 50 46 C51.98 48.97 51.98 48.97 54 52 C53.67 52.66 53.34 53.32 53 54 C52.39671875 53.50628906 51.7934375 53.01257813 51.171875 52.50390625 C50.37265625 51.86324219 49.5734375 51.22257812 48.75 50.5625 C47.56664062 49.60537109 47.56664062 49.60537109 46.359375 48.62890625 C41.71896843 45.42518185 36.48518274 45.36848225 31 46 C25.40526756 47.65843855 22.08266144 50.4877458 18.91015625 55.31640625 C16.09764609 60.5189465 16.33626805 66.53519744 17.42578125 72.22265625 C19.13979858 77.68017155 22.36799362 80.77433773 27 84 C27.66 84.33 28.32 84.66 29 85 C28.67 85.66 28.34 86.32 28 87 C27.34 86.67 26.68 86.34 26 86 C26.37253906 86.55429688 26.74507813 87.10859375 27.12890625 87.6796875 C27.60199219 88.40414062 28.07507813 89.12859375 28.5625 89.875 C29.03816406 90.59429687 29.51382813 91.31359375 30.00390625 92.0546875 C30.33261719 92.69664062 30.66132813 93.33859375 31 94 C30.67 94.66 30.34 95.32 30 96 C29.48050781 95.51789063 28.96101563 95.03578125 28.42578125 94.5390625 C22.80122307 89.44473069 19.02408344 86.50099263 11.109375 86.75390625 C4.20037948 87.55995573 -1.41491502 90.80526384 -6 96 C-8.21676165 100.4335233 -8.75206903 105.10237972 -8 110 C-6.05145933 115.52421324 -3.24086728 120.37956636 2.140625 123.0703125 C8.57579662 125.1626224 17.65271132 125.59262421 23.82421875 122.65625 C25.72599552 121.20857791 27.39821665 119.77039212 29 118 C30.15419155 121.46257466 29.8977049 121.97497688 28.375 125.125 C26.42647059 128.84491979 26.42647059 128.84491979 23.25 130 C22.5075 130 21.765 130 21 130 C20.814375 130.9590625 20.814375 130.9590625 20.625 131.9375 C20.315625 132.9584375 20.315625 132.9584375 20 134 C19.34 134.33 18.68 134.66 18 135 C16.86649466 137.01669827 16.86649466 137.01669827 16 139 C14.35 139 12.7 139 11 139 C11 139.99 11 140.98 11 142 C10.01 141.67 9.02 141.34 8 141 C7.01 142.98 6.02 144.96 5 147 C4.2575 146.67 3.515 146.34 2.75 146 C-0.13883312 144.77217129 -0.13883312 144.77217129 -4 145 C-5.73565302 148.3203797 -7.18174726 151.34566735 -8 155 C-17.92216719 155.78195713 -17.92216719 155.78195713 -22.1875 152.6875 C-24 150 -24 150 -24 147 C-25.65 146.67 -27.3 146.34 -29 146 C-28.25 141.25 -28.25 141.25 -26 139 C-25.49210937 139.49371094 -24.98421875 139.98742187 -24.4609375 140.49609375 C-21.40332159 143.34185238 -18.86024514 145.66643556 -14.9375 147.1875 C-9.66630674 146.85104086 -6.29726191 144.19747253 -2.5625 140.75 C-0.50831687 137.13463768 -0.06862233 134.00727201 -1 130 C-2.76148435 126.9840268 -4.82740878 124.58629561 -8 123 C-15.63632367 122.22073428 -15.63632367 122.22073428 -22.5625 124.9375 C-23.366875 125.618125 -24.17125 126.29875 -25 127 C-25.99 127.495 -25.99 127.495 -27 128 C-27 127.01 -27 126.02 -27 125 C-27.99 125.33 -28.98 125.66 -30 126 C-32.73865287 126.07051114 -35.45027588 126.09357765 -38.1875 126.0625 C-38.93708984 126.05798828 -39.68667969 126.05347656 -40.45898438 126.04882812 C-42.30602383 126.03706354 -44.15302213 126.01912865 -46 126 C-46 125.34 -46 124.68 -46 124 C-46.66 124 -47.32 124 -48 124 C-47.67 123.34 -47.34 122.68 -47 122 C-46.45859375 122.32097656 -45.9171875 122.64195312 -45.359375 122.97265625 C-40.22333436 125.2090448 -33.7400769 125.05421083 -28.54296875 123.0546875 C-23.85039291 120.28615481 -21.25793302 117.31636888 -19.3125 112.1875 C-18.52591312 106.68139182 -18.91439817 101.42800916 -20 96 C-20.66 96 -21.32 96 -22 96 C-22.70125 95.2575 -23.4025 94.515 -24.125 93.75 C-28.41318476 89.64825806 -32.95715477 86.84428784 -39 86.5 C-43.58441192 86.73463526 -47.09425473 88.75173487 -51 91 C-52.32959344 91.67409458 -53.66196391 92.34282298 -55 93 C-55 92.34 -55 91.68 -55 91 C-54.34 91 -53.68 91 -53 91 C-53 89.68 -53 88.36 -53 87 C-54.485 86.505 -54.485 86.505 -56 86 C-55.278125 85.443125 -54.55625 84.88625 -53.8125 84.3125 C-48.24527916 79.73500731 -44.46792955 76.29842264 -43.6640625 68.9140625 C-43.48944539 59.6678838 -43.48944539 59.6678838 -48 52 C-54.30462848 47.50162457 -60.3443213 45.96082712 -68 47 C-71.4614054 47.87100549 -71.4614054 47.87100549 -74 49 C-74 48.01 -74 47.02 -74 46 C-74.66 45.67 -75.32 45.34 -76 45 C-76 44.34 -76 43.68 -76 43 C-74.13671875 41.66796875 -74.13671875 41.66796875 -71.6875 40.1875 C-68.03372548 37.83373617 -65.81376915 36.05430752 -64 32 C-63.33722058 30.66473011 -62.67115598 29.33107922 -62 28 C-61.32845067 29.28913487 -60.66291141 30.58140204 -60 31.875 C-59.62875 32.59429687 -59.2575 33.31359375 -58.875 34.0546875 C-58 36 -58 36 -58 38 C-57.11634766 38.42925781 -57.11634766 38.42925781 -56.21484375 38.8671875 C-54 40 -54 40 -52.31640625 41.0703125 C-46.16111781 44.77171089 -40.01926585 44.76101734 -33 44 C-30.3275771 43.27157917 -28.45554444 42.35838629 -26 41 C-25.236875 40.71125 -24.47375 40.4225 -23.6875 40.125 C-21.27406353 38.51604235 -20.86051903 36.71394464 -20 34 C-19.67 33.01 -19.34 32.02 -19 31 C-18.88020855 29.04433497 -18.82471504 27.08429234 -18.8125 25.125 C-18.79832031 24.09632812 -18.78414062 23.06765625 -18.76953125 22.0078125 C-19.09398093 17.77346924 -19.85720128 15.09937236 -22.953125 12.12109375 C-23.71109375 11.56550781 -24.4690625 11.00992188 -25.25 10.4375 C-26.04792969 9.84710938 -26.84585938 9.25671875 -27.66796875 8.6484375 C-30.41325863 6.70788083 -33.1696345 4.81433686 -36 3 C-33 2 -33 2 -30 3 C-30 3.66 -30 4.32 -30 5 C-28.02 4.67 -26.04 4.34 -24 4 C-24.33 5.65 -24.66 7.3 -25 9 C-22.53199953 7.84826645 -20.95216435 6.95216435 -19 5 C-18.01 5.66 -17.02 6.32 -16 7 C-12.13672393 7.46626705 -12.13672393 7.46626705 -10.54296875 5.57421875 C-10.03378906 5.05472656 -9.52460938 4.53523438 -9 4 C-6.73828125 3.26953125 -6.73828125 3.26953125 -4.3125 2.8125 C-3.50425781 2.65394531 -2.69601563 2.49539062 -1.86328125 2.33203125 C-0.94095703 2.16767578 -0.94095703 2.16767578 0 2 C0 1.34 0 0.68 0 0 Z " fill="#8F101C" transform="translate(139,74)"/>
<path d="M0 0 C-1.54467499 12.00633745 -9.53900942 21.63507032 -18.625 29.1796875 C-25.7115503 34.43132746 -25.7115503 34.43132746 -31 34 C-31 34.66 -31 35.32 -31 36 C-30.34 36 -29.68 36 -29 36 C-29.33 37.32 -29.66 38.64 -30 40 C-31.3317627 39.99214478 -31.3317627 39.99214478 -32.69042969 39.98413086 C-35.99284518 39.96706132 -39.29521359 39.95453637 -42.59765625 39.94506836 C-44.02539816 39.94004794 -45.45313496 39.93323028 -46.88085938 39.92456055 C-48.93621079 39.91239447 -50.99149407 39.90674872 -53.046875 39.90234375 C-54.28276367 39.89710693 -55.51865234 39.89187012 -56.79199219 39.88647461 C-59.43358184 39.97995552 -61.48354137 40.31051943 -64 41 C-65.33333333 40.66666667 -66.66666667 40.33333333 -68 40 C-70.15394917 40.29866236 -70.15394917 40.29866236 -72.25 40.9375 C-73.4875 41.288125 -74.725 41.63875 -76 42 C-76.33 43.98 -76.66 45.96 -77 48 C-76.01 48.495 -76.01 48.495 -75 49 C-75.804375 49.268125 -76.60875 49.53625 -77.4375 49.8125 C-78.7059375 50.4003125 -78.7059375 50.4003125 -80 51 C-80.33 51.99 -80.66 52.98 -81 54 C-81.99 54 -82.98 54 -84 54 C-84.21914062 53.1028125 -84.43828125 52.205625 -84.6640625 51.28125 C-89.24565568 33.25286709 -94.65619038 14.89587308 -111 4 C-111.54337501 0.42924991 -111.43720456 -1.33544906 -109.4375 -4.375 C-107 -6 -107 -6 -103.8125 -6.8125 C-96.41948397 -5.23693921 -91.89768825 1.48369843 -87.6875 7.4375 C-84.38552431 12.6709935 -81 18.70902477 -81 25 C-80.34 25 -79.68 25 -79 25 C-78.7215625 23.7934375 -78.7215625 23.7934375 -78.4375 22.5625 C-74.36280406 12.4643405 -64.85386792 2.68382867 -55 -2 C-36.51549297 -8.7278169 -17.86455203 -9.08898261 0 0 Z " fill="#086233" transform="translate(208,28)"/>
<path d="M0 0 C2.42613218 1.62421734 4.71802945 3.18671663 6.8515625 5.1796875 C6.8515625 5.8396875 6.8515625 6.4996875 6.8515625 7.1796875 C7.8415625 7.5096875 8.8315625 7.8396875 9.8515625 8.1796875 C12.93812323 14.01100861 12.99974508 21.33793065 11.12890625 27.59765625 C8.69029042 32.85993251 5.57458615 36.11816981 0.0859375 38.2578125 C-6.56343419 40.15304404 -14.28186883 40.48181195 -20.6484375 37.4921875 C-26.23100568 34.14264659 -29.52088884 30.12624499 -32.1484375 24.1796875 C-32.46554688 24.75976562 -32.78265625 25.33984375 -33.109375 25.9375 C-36.93082842 32.33473971 -41.09096396 36.51420393 -48.1484375 39.1796875 C-52.87249093 39.93053043 -57.19790174 40.34393462 -61.40625 37.83203125 C-64.3248772 35.06391622 -64.35411064 32.07108721 -64.4609375 28.2421875 C-64.3222599 17.74429324 -60.61337052 8.585957 -53.1484375 1.1796875 C-38.13658628 -11.1751989 -16.16837175 -9.34796679 0 0 Z " fill="#D72834" transform="translate(109.1484375,79.8203125)"/>
<path d="M0 0 C10.61279382 5.3515962 19.04741341 13.51873515 23.29296875 24.78125 C24.50701526 29.12831975 25.02201373 33.67783082 24.29296875 38.15625 C21.77634495 40.6728738 20.72806167 40.53818779 17.23046875 40.65625 C10.89548144 40.52340623 6.84112681 38.51300261 2.29296875 34.15625 C0.34541207 31.61119935 -1.26320293 29.01488496 -2.70703125 26.15625 C-4.6987004 29.05833312 -4.6987004 29.05833312 -6.20703125 31.84375 C-6.70203125 32.606875 -7.19703125 33.37 -7.70703125 34.15625 C-8.36703125 34.15625 -9.02703125 34.15625 -9.70703125 34.15625 C-10.03703125 35.14625 -10.36703125 36.13625 -10.70703125 37.15625 C-16.88687389 40.88912464 -23.60553481 42.23523706 -30.70703125 41.15625 C-37.51497436 39.38717865 -41.79728261 37.02087296 -45.70703125 31.15625 C-48.19816758 26.81001215 -48.34800336 23.07307407 -47.70703125 18.15625 C-45.57445987 11.23497043 -40.7362171 5.60042524 -34.58203125 1.8671875 C-24.61257385 -3.22749845 -10.63905871 -3.9553127 0 0 Z " fill="#D62734" transform="translate(177.70703125,77.84375)"/>
<path d="M0 0 C1.98837254 0.96016469 3.78770034 2.00834732 5.6171875 3.2421875 C6.5453125 3.8609375 7.4734375 4.4796875 8.4296875 5.1171875 C12.83143865 9.39317433 13.81953943 13.16703083 13.9921875 19.1796875 C13.82879708 25.76432158 12.27100673 29.76145866 8.6171875 35.2421875 C7.9571875 35.2421875 7.2971875 35.2421875 6.6171875 35.2421875 C6.6171875 35.9021875 6.6171875 36.5621875 6.6171875 37.2421875 C-0.51440732 41.80640819 -7.02856872 42.2072635 -15.3828125 41.2421875 C-20.82445809 39.65468715 -24.76572361 36.60397116 -28.3828125 32.2421875 C-31.28586004 26.23165245 -31.62485867 19.20521109 -29.625 12.82421875 C-27.82849871 9.05439518 -25.72152558 5.82699762 -22.3828125 3.2421875 C-21.3928125 3.2421875 -20.4028125 3.2421875 -19.3828125 3.2421875 C-19.3828125 2.5821875 -19.3828125 1.9221875 -19.3828125 1.2421875 C-13.28807886 -1.54333976 -6.44101795 -2.04845489 0 0 Z " fill="#D52834" transform="translate(133.3828125,120.7578125)"/>
<path d="M0 0 C5.77844396 3.21024664 10.43751029 6.83440544 13.375 12.875 C13.73828125 15.99609375 13.73828125 15.99609375 13.6875 19.3125 C13.68363281 20.40433594 13.67976563 21.49617188 13.67578125 22.62109375 C13.36567914 25.9758348 12.56431589 28.73350027 11.375 31.875 C10.715 31.875 10.055 31.875 9.375 31.875 C9.16875 32.4525 8.9625 33.03 8.75 33.625 C6.60767616 37.13062082 3.36973307 39.26123598 -0.5546875 40.46875 C-6.79217884 41.69271057 -12.18337599 41.36248422 -17.76953125 38.20703125 C-22.81718239 34.58334906 -26.41715385 30.03501536 -27.625 23.875 C-28.35666584 17.0956587 -27.8927831 11.39592717 -23.625 5.875 C-16.45473231 -0.74703797 -9.47377697 -2.94013768 0 0 Z " fill="#D62733" transform="translate(182.625,120.125)"/>
<path d="M0 0 C3.6957804 2.66881134 5.814364 5.22679341 7.20703125 9.59375 C8.15331395 16.41380549 8.07983077 22.92488742 4.47265625 28.9453125 C0.96121198 33.51886028 -3.08541565 36.386383 -8.79296875 37.59375 C-15.76147807 38.35629732 -20.94089154 37.53577423 -26.79296875 33.59375 C-30.09661322 30.89867162 -31.47550448 28.6190238 -32.79296875 24.59375 C-33.09375 21.25390625 -33.09375 21.25390625 -33.10546875 17.65625 C-33.12222656 16.47160156 -33.13898437 15.28695312 -33.15625 14.06640625 C-32.59198553 8.67252332 -30.60225602 4.78963363 -26.41796875 1.34375 C-18.17163158 -5.20531611 -9.09938743 -5.15870783 0 0 Z " fill="#D52835" transform="translate(88.79296875,123.40625)"/>
<path d="M0 0 C3.97657372 3.3037478 6.67159161 6.09593151 7.2734375 11.41796875 C7.52719318 18.33769103 6.57186963 22.71416717 2 28 C-0.5 30.3125 -0.5 30.3125 -3 32 C-4.13501953 32.78117187 -4.13501953 32.78117187 -5.29296875 33.578125 C-10.52110128 36.32421482 -16.75666604 35.8453936 -22.3828125 34.37890625 C-27.81943752 32.05335372 -30.49382923 28.23821959 -33 23 C-34.80260014 17.59219958 -34.74543219 11.93158778 -32.2421875 6.734375 C-24.45832377 -4.13366115 -11.08779744 -7.47569023 0 0 Z " fill="#D62734" transform="translate(164,164)"/>
<path d="M0 0 C3.20883185 1.78479405 6.12394101 3.72947594 8.8125 6.25 C8.8125 6.91 8.8125 7.57 8.8125 8.25 C9.4725 8.25 10.1325 8.25 10.8125 8.25 C13.60830326 15.23950816 13.72464987 21.52323798 10.86328125 28.42578125 C8.41411568 32.67767835 4.29166646 35.40183942 -0.1875 37.25 C-6.99933875 38.17446383 -12.78939193 37.94446832 -18.43359375 33.8203125 C-26.91168736 26.2296808 -26.91168736 26.2296808 -27.42578125 20.67578125 C-27.58707533 13.90991906 -27.53307137 9.57332492 -23.1875 4.25 C-16.13257877 -1.1866898 -8.45533554 -4.08354273 0 0 Z " fill="#D52834" transform="translate(108.1875,161.75)"/>
<path d="M0 0 C3.48715894 1.98396827 6.19673639 4.39347279 8 8 C8.78589812 14.62399845 8.78589812 14.62399845 6.87109375 17.9765625 C3.79425308 21.75231998 0.69333535 24.43555488 -4 26 C-8.66048448 26.20262976 -10.92298994 24.436367 -14.3125 21.5 C-18.98196916 17.15961723 -18.98196916 17.15961723 -19.23828125 14.890625 C-19.43891129 7.75241935 -19.43891129 7.75241935 -17.25 4 C-12.0918955 -0.58498177 -6.71312924 -1.1172768 0 0 Z " fill="#D52734" transform="translate(131,196)"/>
<path d="M0 0 C2.4375 2.25390625 2.4375 2.25390625 4 4 C4.66 2.68 5.32 1.36 6 0 C6.495 4.455 6.495 4.455 7 9 C5.68 8.34 4.36 7.68 3 7 C2.38125 7.495 1.7625 7.99 1.125 8.5 C-1 10 -1 10 -3 10 C-2.67 8.35 -2.34 6.7 -2 5 C-4.97 5.495 -4.97 5.495 -8 6 C-8 5.34 -8 4.68 -8 4 C-9.11375 4.061875 -10.2275 4.12375 -11.375 4.1875 C-14.77659078 4.1994145 -17.46998685 3.64729167 -20.6875 2.5625 C-25.90401332 0.83178764 -30.9422057 0.47891174 -36.41015625 0.2109375 C-39 0 -39 0 -40 -1 C-41.258125 -0.938125 -42.51625 -0.87625 -43.8125 -0.8125 C-47.70463183 -0.72924584 -47.70463183 -0.72924584 -50.25 -3.0625 C-50.8275 -3.701875 -51.405 -4.34125 -52 -5 C-54.10820797 -4.6814823 -54.10820797 -4.6814823 -56 -4 C-56.66 -4.66 -57.32 -5.32 -58 -6 C-56.43979133 -6.65134925 -54.87671421 -7.29582964 -53.3125 -7.9375 C-52.44238281 -8.29714844 -51.57226562 -8.65679687 -50.67578125 -9.02734375 C-33.19719346 -15.3808742 -14.98861212 -9.38589773 0 0 Z " fill="#8B121F" transform="translate(117,73)"/>
<path d="M0 0 C0.33 0.66 0.66 1.32 1 2 C10.405 1.505 10.405 1.505 20 1 C20.94563327 4.78253306 21.01023412 7.11767671 20.6875 10.9375 C20.56955078 12.46697266 20.56955078 12.46697266 20.44921875 14.02734375 C20.00628697 16.95839664 19.21492455 19.30733048 18 22 C19.65 22.33 21.3 22.66 23 23 C23.12375 23.8971875 23.12375 23.8971875 23.25 24.8125 C24.24526926 27.71536869 25.376444 28.44004778 28 30 C30.81829883 30.36100534 30.81829883 30.36100534 33.75 30.1875 C35.22726563 30.14689453 35.22726563 30.14689453 36.734375 30.10546875 C37.85585937 30.05326172 37.85585937 30.05326172 39 30 C39 29.01 39 28.02 39 27 C40.17148276 24.55766765 41.59736658 22.32311159 43 20 C43.928125 20.165 44.85625 20.33 45.8125 20.5 C48.95621353 21.07748388 48.95621353 21.07748388 52 21 C53.71711243 18.55503957 53.71711243 18.55503957 55 16 C55.495 16.99 55.495 16.99 56 18 C56.66 18 57.32 18 58 18 C58 17.01 58 16.02 58 15 C59.65 14.67 61.3 14.34 63 14 C61.59383813 17.35148093 60.04625733 19.01190392 57.11328125 21.12890625 C56.33919922 21.68900391 55.56511719 22.24910156 54.76757812 22.82617188 C53.95740234 23.39916016 53.14722656 23.97214844 52.3125 24.5625 C51.52166016 25.13935547 50.73082031 25.71621094 49.91601562 26.31054688 C44.33324887 30.30745751 39.3007935 33.88997355 32.25 34.125 C23.11247085 32.49897934 15.0016957 24.68779725 8 19 C8.66 18.67 9.32 18.34 10 18 C10 16.02 10 14.04 10 12 C8.576875 12.2784375 8.576875 12.2784375 7.125 12.5625 C4 13 4 13 2 12 C1.34 11.01 0.68 10.02 0 9 C-0.33 8.67 -0.66 8.34 -1 8 C-1.125 4.5 -1.125 4.5 -1 1 C-0.67 0.67 -0.34 0.34 0 0 Z " fill="#8D1421" transform="translate(92,198)"/>
<path d="M0 0 C-0.82242188 0.40089844 -1.64484375 0.80179688 -2.4921875 1.21484375 C-11.34834103 5.72473256 -18.96323293 10.79835822 -25.15234375 18.7734375 C-25.76207031 19.50820313 -26.37179688 20.24296875 -27 21 C-27.66 21 -28.32 21 -29 21 C-29.73080266 22.97746603 -30.39421747 24.98072489 -31 27 C-30.67 27.66 -30.34 28.32 -30 29 C-32.64 29.66 -35.28 30.32 -38 31 C-38.33 32.98 -38.66 34.96 -39 37 C-38.34 37.33 -37.68 37.66 -37 38 C-37.804375 38.268125 -38.60875 38.53625 -39.4375 38.8125 C-40.7059375 39.4003125 -40.7059375 39.4003125 -42 40 C-42.33 40.99 -42.66 41.98 -43 43 C-43.99 43 -44.98 43 -46 43 C-46.24234375 42.04480469 -46.4846875 41.08960938 -46.734375 40.10546875 C-48.58104728 32.94903338 -50.56712301 26.0323376 -53.36328125 19.171875 C-54 17 -54 17 -53 14 C-50.53686261 15.82748903 -49.16571382 17.22976216 -48.51171875 20.26953125 C-48.27481707 22.51479346 -48.09638651 24.74455578 -48 27 C-47.34 27 -46.68 27 -46 27 C-43.85714286 34.42857143 -43.85714286 34.42857143 -43 38 C-42.34 38 -41.68 38 -41 38 C-41.12375 36.5459375 -41.12375 36.5459375 -41.25 35.0625 C-41.19806965 26.45937242 -35.61800133 19.07089203 -30 13 C-22.98841943 6.25575872 -10.32125902 -3.31754754 0 0 Z " fill="#3C8D49" transform="translate(170,39)"/>
<path d="M0 0 C8.20384783 1.74836101 13.27176455 10.00139682 17.71875 16.671875 C18.95687323 19.09505903 19.56121458 21.10220727 19.8125 23.8125 C19.1525 24.4725 18.4925 25.1325 17.8125 25.8125 C14.81925737 24.7149777 13.96639099 24.13567108 12.5625 21.1875 C12.315 20.40375 12.0675 19.62 11.8125 18.8125 C11.03928118 21.79491547 10.40053797 24.78830475 9.8125 27.8125 C7.18705171 25.29206964 4.79600026 22.64140053 2.4375 19.875 C0.23542556 17.30194973 -1.89354521 15.18281804 -4.625 13.1875 C-7.1875 10.8125 -7.1875 10.8125 -7.8125 7.75 C-6.76061833 2.80615616 -4.8460914 1.2352782 0 0 Z " fill="#066032" transform="translate(104.1875,21.1875)"/>
<path d="M0 0 C-0.7109375 2.43359375 -0.7109375 2.43359375 -2 5 C-4.1015625 5.78515625 -4.1015625 5.78515625 -6.625 6.0625 C-14.40540927 7.29570608 -19.8262868 9.87894626 -24.75 16.140625 C-27.87559518 20.78994784 -29.32721153 25.48313456 -30 31 C-30.66 29.68 -31.32 28.36 -32 27 C-33.98 27.99 -33.98 27.99 -36 29 C-36 33.95 -36 38.9 -36 44 C-38 43 -38 43 -39 40 C-40.06378639 29.83299236 -37.81933264 20.45074942 -31.8125 12.125 C-22.97534138 1.69828822 -13.18908878 -0.38982528 0 0 Z " fill="#CF2A35" transform="translate(84,73)"/>
<path d="M0 0 C-1 3 -1 3 -3.73046875 4.6484375 C-4.87128906 5.21820313 -6.01210937 5.78796875 -7.1875 6.375 C-17.04097694 11.50779472 -22.65477917 18.15899231 -29 27 C-29.66 26.67 -30.32 26.34 -31 26 C-30.80105805 18.187007 -28.72398553 13.00487008 -23.39453125 7.2734375 C-16.33413157 0.71388997 -9.42664396 -0.52155612 0 0 Z " fill="#F17D7C" transform="translate(85,78)"/>
<path d="M0 0 C3 2 3 2 4 5 C4.76021873 11.72250563 4.45509506 16.78997442 0.42578125 22.3515625 C-1.52196087 24.60347256 -3.53274482 26.33460275 -6 28 C-6.75023437 28.52335937 -7.50046875 29.04671875 -8.2734375 29.5859375 C-11.46870134 31.24308006 -13.54709965 31.3707866 -17.125 31.3125 C-18.15882813 31.30863281 -19.19265625 31.30476563 -20.2578125 31.30078125 C-23 31 -23 31 -26 29 C-24.1746875 29.0309375 -24.1746875 29.0309375 -22.3125 29.0625 C-17.57966593 29.06644923 -17.57966593 29.06644923 -13 28 C-11.94978897 26.15028304 -11.94978897 26.15028304 -11 24 C-10.21625 23.46375 -9.4325 22.9275 -8.625 22.375 C-4.82390844 18.93591716 -3.6309026 14.77426235 -2 10 C-1.34 10 -0.68 10 0 10 C0 6.7 0 3.4 0 0 Z " fill="#B81D2F" transform="translate(167,168)"/>
<path d="M0 0 C5.25789109 0.54532307 9.07302959 2.31435687 13.625 4.8125 C14.60726562 5.32780273 14.60726562 5.32780273 15.609375 5.85351562 C19.29267351 7.84055824 22.19009351 9.82637464 25 13 C25.66 11.68 26.32 10.36 27 9 C27.33 11.97 27.66 14.94 28 18 C26.68 17.34 25.36 16.68 24 16 C23.38125 16.495 22.7625 16.99 22.125 17.5 C20 19 20 19 18 19 C18.33 17.35 18.66 15.7 19 14 C17.02 14.33 15.04 14.66 13 15 C13 14.34 13 13.68 13 13 C10.36 13 7.72 13 5 13 C4.34 11.02 3.68 9.04 3 7 C3.66 6.67 4.32 6.34 5 6 C5 5.01 5 4.02 5 3 C3.35 2.67 1.7 2.34 0 2 C0 1.34 0 0.68 0 0 Z " fill="#90212D" transform="translate(96,64)"/>
<path d="M0 0 C-1.40616187 3.35148093 -2.95374267 5.01190392 -5.88671875 7.12890625 C-6.66080078 7.68900391 -7.43488281 8.24910156 -8.23242188 8.82617188 C-9.04259766 9.39916016 -9.85277344 9.97214844 -10.6875 10.5625 C-11.47833984 11.13935547 -12.26917969 11.71621094 -13.08398438 12.31054688 C-18.66675113 16.30745751 -23.6992065 19.88997355 -30.75 20.125 C-37.59042494 18.94700118 -44.35703135 14.02859727 -49 9 C-46.69 9.33 -44.38 9.66 -42 10 C-42 10.99 -42 11.98 -42 13 C-41.21625 13.12375 -40.4325 13.2475 -39.625 13.375 C-37 14 -37 14 -35 16 C-32.33050591 16.24315656 -32.33050591 16.24315656 -29.375 16.125 C-28.37210938 16.10695312 -27.36921875 16.08890625 -26.3359375 16.0703125 C-25.56507813 16.04710937 -24.79421875 16.02390625 -24 16 C-24 15.01 -24 14.02 -24 13 C-22.82851724 10.55766765 -21.40263342 8.32311159 -20 6 C-19.071875 6.165 -18.14375 6.33 -17.1875 6.5 C-14.04378647 7.07748388 -14.04378647 7.07748388 -11 7 C-9.28288757 4.55503957 -9.28288757 4.55503957 -8 2 C-7.505 2.99 -7.505 2.99 -7 4 C-6.34 4 -5.68 4 -5 4 C-5 3.01 -5 2.02 -5 1 C-2 0 -2 0 0 0 Z " fill="#922933" transform="translate(155,212)"/>
<path d="M0 0 C0 0.66 0 1.32 0 2 C3.63 2 7.26 2 11 2 C8.37949169 4.62050831 6.36329695 4.70741603 2.75 5.4375 C-1.11810731 6.2578788 -3.90014051 6.94452251 -7.375 8.875 C-10 10 -10 10 -11.90625 9.51953125 C-13.875 8.6875 -13.875 8.6875 -17 7 C-14.68143083 5.45428722 -12.49361571 4.20381448 -10 3 C-10.33 2.34 -10.66 1.68 -11 1 C-10 -1 -10 -1 -8.3125 -1.75 C-5.17326781 -2.08937645 -2.91097894 -1.12469641 0 0 Z " fill="#8C111B" transform="translate(69,69)"/>
<path d="M0 0 C1.65 0 3.3 0 5 0 C-2.85491531 9.65032453 -11.71778496 18.94357791 -22 26 C-21.67 24.35 -21.34 22.7 -21 21 C-20.34 21 -19.68 21 -19 21 C-18.67 19.68 -18.34 18.36 -18 17 C-16.35 16.67 -14.7 16.34 -13 16 C-12.87625 15.4225 -12.7525 14.845 -12.625 14.25 C-11.99351176 11.97664233 -11.11141809 10.0746471 -10 8 C-8.35 8 -6.7 8 -5 8 C-4.34 5.69 -3.68 3.38 -3 1 C-2.34 1.33 -1.68 1.66 -1 2 C-0.67 1.34 -0.34 0.68 0 0 Z " fill="#99444B" transform="translate(178,187)"/>
<path d="M0 0 C-0.70125 0.45375 -1.4025 0.9075 -2.125 1.375 C-5.5424006 4.49523533 -7.27070213 7.7724135 -9.375 11.85546875 C-11 14 -11 14 -13.6875 14.80078125 C-14.8321875 14.89939453 -14.8321875 14.89939453 -16 15 C-15.67 16.32 -15.34 17.64 -15 19 C-15.66 19.33 -16.32 19.66 -17 20 C-17.474377 12.71304215 -17.28670939 8.02818509 -13 2 C-12.401875 2.226875 -11.80375 2.45375 -11.1875 2.6875 C-10.465625 2.790625 -9.74375 2.89375 -9 3 C-7.39588754 1.64594139 -7.39588754 1.64594139 -6 0 C-3 -1 -3 -1 0 0 Z " fill="#D32A37" transform="translate(121,129)"/>
<path d="M0 0 C0.66 0.33 1.32 0.66 2 1 C2.05451714 3.04136395 2.09302485 5.08315856 2.125 7.125 C2.14820313 8.26195312 2.17140625 9.39890625 2.1953125 10.5703125 C1.99672109 14.05757767 1.2524801 16.7553862 0 20 C-0.66 20 -1.32 20 -2 20 C-2.309375 20.86625 -2.309375 20.86625 -2.625 21.75 C-4.76553361 25.25269136 -7.99556401 27.35660079 -11.8984375 28.609375 C-14.22947388 29.04265314 -16.38069276 29.09734275 -18.75 29.0625 C-19.54921875 29.05347656 -20.3484375 29.04445312 -21.171875 29.03515625 C-21.77515625 29.02355469 -22.3784375 29.01195312 -23 29 C-23 28.67 -23 28.34 -23 28 C-20.36 28 -17.72 28 -15 28 C-15 27.34 -15 26.68 -15 26 C-14.278125 25.79375 -13.55625 25.5875 -12.8125 25.375 C-9.01544 23.51865956 -7.5018692 21.40532197 -5 18 C-4.67 17.01 -4.34 16.02 -4 15 C-3.34 15 -2.68 15 -2 15 C-1.34 10.05 -0.68 5.1 0 0 Z " fill="#B51F2E" transform="translate(194,132)"/>
<path d="M0 0 C2 2 2 2 2.125 5.625 C2.08375 6.73875 2.0425 7.8525 2 9 C2.66 9 3.32 9 4 9 C4 10.32 4 11.64 4 13 C6.64 13 9.28 13 12 13 C13.125 16.75 13.125 16.75 12 19 C6.704806 18.64435264 4.11401216 15.77177519 0.5 12.25 C-0.05558594 11.7240625 -0.61117187 11.198125 -1.18359375 10.65625 C-4.51130978 7.49296229 -7.76569945 4.25843712 -11 1 C-9.02 1 -7.04 1 -5 1 C-5.33 1.99 -5.66 2.98 -6 4 C-5.01 4 -4.02 4 -3 4 C-2.67 3.34 -2.34 2.68 -2 2 C-1.34 2 -0.68 2 0 2 C0 1.34 0 0.68 0 0 Z " fill="#93333B" transform="translate(90,197)"/>
<path d="M0 0 C3.02356014 2.01570676 4.67545483 3.39870638 5.4140625 7.04296875 C5.609375 9.02864583 5.8046875 11.01432292 6 13 C6.66 13 7.32 13 8 13 C10.14285714 20.42857143 10.14285714 20.42857143 11 24 C11.66 24 12.32 24 13 24 C13 21.69 13 19.38 13 17 C13.33 17 13.66 17 14 17 C14 19.97 14 22.94 14 26 C13.34 26 12.68 26 12 26 C11.67 26.99 11.34 27.98 11 29 C10.01 29 9.02 29 8 29 C7.75765625 28.04480469 7.5153125 27.08960937 7.265625 26.10546875 C5.42550556 18.97084067 3.43999899 12.03999743 0.734375 5.171875 C0 3 0 3 0 0 Z " fill="#195B35" transform="translate(116,53)"/>
<path d="M0 0 C-0.845625 0.42410156 -1.69125 0.84820312 -2.5625 1.28515625 C-8.84801032 4.53505079 -14.4542771 7.78717664 -19.609375 12.71484375 C-21 14 -21 14 -22 14 C-22 12.35 -22 10.7 -22 9 C-22.66 8.67 -23.32 8.34 -24 8 C-17.64938094 3.60341757 -7.94480992 -2.91309697 0 0 Z " fill="#318A48" transform="translate(170,39)"/>
<path d="M0 0 C0.99 0 1.98 0 3 0 C1.49772704 4.38368175 -0.85495733 7.91253257 -3.5625 11.625 C-3.99997559 12.23166504 -4.43745117 12.83833008 -4.88818359 13.46337891 C-9.03717582 19.16097018 -13.45110009 24.61603634 -18 30 C-18.33 28.68 -18.66 27.36 -19 26 C-18.34 26 -17.68 26 -17 26 C-17 25.01 -17 24.02 -17 23 C-16.34 23 -15.68 23 -15 23 C-15 22.34 -15 21.68 -15 21 C-14.34 21 -13.68 21 -13 21 C-12.67 19.35 -12.34 17.7 -12 16 C-11.01 16.33 -10.02 16.66 -9 17 C-9 15.02 -9 13.04 -9 11 C-8.38125 10.7525 -7.7625 10.505 -7.125 10.25 C-4.64931313 8.79371361 -4.04874998 7.62187494 -3 5 C-2.34 5 -1.68 5 -1 5 C-0.67 3.35 -0.34 1.7 0 0 Z " fill="#A04F58" transform="translate(204,155)"/>
<path d="M0 0 C6.52307692 -0.36923077 6.52307692 -0.36923077 8.9375 1.5 C9.288125 1.995 9.63875 2.49 10 3 C9.34 4.65 8.68 6.3 8 8 C7.34 8 6.68 8 6 8 C6 8.99 6 9.98 6 11 C0.125 7.375 0.125 7.375 -1 4 C-0.5625 1.8125 -0.5625 1.8125 0 0 Z " fill="#056030" transform="translate(100,24)"/>
<path d="M0 0 C-2.37783838 2.37783838 -3.72073665 2.59009208 -7 3 C-7.66 2.67 -8.32 2.34 -9 2 C-9 1.34 -9 0.68 -9 0 C-11.64624284 0.14021805 -14.29184578 0.28689776 -16.9375 0.4375 C-18.06961914 0.49647461 -18.06961914 0.49647461 -19.22460938 0.55664062 C-22.91944187 0.44038024 -22.91944187 0.44038024 -26 2 C-28.33944736 1.71269945 -30.6739143 1.38063221 -33 1 C-23.35159454 -4.56638777 -10.33684156 -2.27898869 0 0 Z " fill="#518469" transform="translate(195,23)"/>
<path d="M0 0 C2.31 0.33 4.62 0.66 7 1 C7 1.99 7 2.98 7 4 C7.78375 4.12375 8.5675 4.2475 9.375 4.375 C12 5 12 5 14 7 C17.12814514 7.24360073 17.12814514 7.24360073 20.625 7.125 C21.81351563 7.10695312 23.00203125 7.08890625 24.2265625 7.0703125 C25.59941406 7.03550781 25.59941406 7.03550781 27 7 C27 7.66 27 8.32 27 9 C23.40283514 10.91099383 20.36640171 11.36974484 16.32421875 10.74609375 C10.24324224 8.79404919 4.32436891 4.68353576 0 0 Z " fill="#A5575F" transform="translate(106,221)"/>
<path d="M0 0 C5.75 3.75 5.75 3.75 8 6 C8.66 4.68 9.32 3.36 10 2 C10.33 4.97 10.66 7.94 11 11 C9.68 10.34 8.36 9.68 7 9 C6.38125 9.495 5.7625 9.99 5.125 10.5 C3 12 3 12 1 12 C1.165 11.195625 1.33 10.39125 1.5 9.5625 C2.03191839 7.2715557 2.03191839 7.2715557 2 6 C1.34 5.34 0.68 4.68 0 4 C0 2.68 0 1.36 0 0 Z " fill="#984A4F" transform="translate(113,71)"/>
<path d="M0 0 C0.69867188 -0.00386719 1.39734375 -0.00773437 2.1171875 -0.01171875 C5.87074298 -0.00463657 9.35151145 0.22712977 13 1.125 C13 1.455 13 1.785 13 2.125 C11.93471069 2.13901855 11.93471069 2.13901855 10.84790039 2.15332031 C7.58543326 2.20747796 4.32433076 2.29103569 1.0625 2.375 C-0.61295898 2.39626953 -0.61295898 2.39626953 -2.32226562 2.41796875 C-9.39644288 2.62542263 -14.80209649 3.64062144 -21 7.125 C-21.66 6.465 -22.32 5.805 -23 5.125 C-21.43979133 4.47365075 -19.87671421 3.82917036 -18.3125 3.1875 C-17.44238281 2.82785156 -16.57226562 2.46820313 -15.67578125 2.09765625 C-10.44064816 0.19466627 -5.5326097 -0.0306233 0 0 Z " fill="#B27279" transform="translate(82,61.875)"/>
<path d="M0 0 C-0.70125 0.45375 -1.4025 0.9075 -2.125 1.375 C-6.09964727 5.00402577 -8.40462386 9.32653918 -11 14 C-11.66 13.67 -12.32 13.34 -13 13 C-12.74537391 7.78016506 -10.88742925 5.19348103 -7.5703125 1.41796875 C-4.84945537 -1.03892463 -3.44328337 -1.14776112 0 0 Z " fill="#F77679" transform="translate(121,129)"/>
<path d="M0 0 C-0.45890625 0.43570313 -0.9178125 0.87140625 -1.390625 1.3203125 C-5.17320201 4.99163724 -8.18207526 8.55634945 -11 13 C-11.33 13 -11.66 13 -12 13 C-11.63074596 6.84576594 -10.17122773 4.27296499 -6 0 C-3.50907189 -1.24546405 -2.58919267 -0.7767578 0 0 Z " fill="#F87879" transform="translate(73,129)"/>
<path d="M0 0 C2.97 0.495 2.97 0.495 6 1 C6 1.66 6 2.32 6 3 C7.98 2.67 9.96 2.34 12 2 C11.67 3.65 11.34 5.3 11 7 C13.46800047 5.84826645 15.04783565 4.95216435 17 3 C17 3.99 17 4.98 17 6 C16.01 6.33 15.02 6.66 14 7 C14 7.66 14 8.32 14 9 C14.66 9 15.32 9 16 9 C15.67 9.99 15.34 10.98 15 12 C14.41992188 11.54109375 13.83984375 11.0821875 13.2421875 10.609375 C7.9600722 6.4512649 7.9600722 6.4512649 2.4375 2.625 C1.633125 2.08875 0.82875 1.5525 0 1 C0 0.67 0 0.34 0 0 Z " fill="#920E19" transform="translate(103,76)"/>
<path d="M0 0 C2.31 0 4.62 0 7 0 C7 0.66 7 1.32 7 2 C7.66 2 8.32 2 9 2 C8.34 5.3 7.68 8.6 7 12 C6.34 12 5.68 12 5 12 C2.15549386 8.28026121 1.6772494 5.62609198 2 1 C1.34 0.67 0.68 0.34 0 0 Z " fill="#036232" transform="translate(122,65)"/>
<path d="M0 0 C0.33 0 0.66 0 1 0 C1.33 2.97 1.66 5.94 2 9 C2.33 9 2.66 9 3 9 C4.125 16.75 4.125 16.75 3 19 C3.185625 19.969375 3.37125 20.93875 3.5625 21.9375 C4 25 4 25 2 28 C-0.59866874 18.76544501 -0.18617696 9.495025 0 0 Z " fill="#A5585F" transform="translate(33,106)"/>
<path d="M0 0 C0.66 0.66 1.32 1.32 2 2 C1.34 4.31 0.68 6.62 0 9 C-3.39192363 8.40716379 -5.2107757 7.23256811 -7.75 4.9375 C-8.36359375 4.38964844 -8.9771875 3.84179688 -9.609375 3.27734375 C-10.06828125 2.85582031 -10.5271875 2.43429688 -11 2 C-7.25 0.875 -7.25 0.875 -5 2 C-5.33 2.66 -5.66 3.32 -6 4 C-5.01 4 -4.02 4 -3 4 C-2.67 3.34 -2.34 2.68 -2 2 C-1.34 2 -0.68 2 0 2 C0 1.34 0 0.68 0 0 Z " fill="#943139" transform="translate(90,197)"/>
<path d="M0 0 C0.33 0.66 0.66 1.32 1 2 C-0.25 5.5625 -0.25 5.5625 -2 9 C-2.99 9.33 -3.98 9.66 -5 10 C-5.33 12.31 -5.66 14.62 -6 17 C-6.99 17.33 -7.98 17.66 -9 18 C-9.33 16.68 -9.66 15.36 -10 14 C-9.34 14 -8.68 14 -8 14 C-7.79375 13.175 -7.5875 12.35 -7.375 11.5 C-5.62311015 7.04064403 -2.98989535 3.70446154 0 0 Z " fill="#5B9074" transform="translate(137,39)"/>
<path d="M0 0 C0.66 0.33 1.32 0.66 2 1 C1.53730015 5.29227942 -0.90159458 7.02922065 -4.0625 9.75 C-4.98160156 10.54921875 -5.90070313 11.3484375 -6.84765625 12.171875 C-7.55792969 12.77515625 -8.26820313 13.3784375 -9 14 C-9.33 12.68 -9.66 11.36 -10 10 C-9.01 9.67 -8.02 9.34 -7 9 C-6.26676204 6.98491642 -6.26676204 6.98491642 -6 5 C-4.35 4.67 -2.7 4.34 -1 4 C-0.67 2.68 -0.34 1.36 0 0 Z " fill="#9B484F" transform="translate(166,199)"/>
<path d="M0 0 C0.12375 0.5775 0.2475 1.155 0.375 1.75 C1.45771673 5.64778021 2.71765295 7.71765295 5.625 10.625 C8 13 8 13 8 15 C8.66 15.33 9.32 15.66 10 16 C6.14305459 16 5.19888391 14.85701128 2.3125 12.375 C1.50425781 11.70210937 0.69601563 11.02921875 -0.13671875 10.3359375 C-2 8 -2 8 -2.39453125 4.8515625 C-2 2 -2 2 0 0 Z " fill="#5B8E71" transform="translate(99,24)"/>
<path d="M0 0 C0.33 0 0.66 0 1 0 C2.58176345 8.69969896 3.05342738 17.60307471 0 26 C-0.33 26 -0.66 26 -1 26 C-0.67 17.42 -0.34 8.84 0 0 Z " fill="#A55C62" transform="translate(217,103)"/>
<path d="M0 0 C3 2 3 2 5 5 C5 9 5 9 3 12 C1 11 1 11 -1 9 C-1.43221915 6.20460862 -1.23050372 3.85824617 -1 1 C-0.67 0.67 -0.34 0.34 0 0 Z " fill="#075F30" transform="translate(115,39)"/>
<path d="M0 0 C0.33 1.32 0.66 2.64 1 4 C-2.44069624 6.29379749 -3.72290301 7 -8 7 C-8.33 7.66 -8.66 8.32 -9 9 C-9.99 9 -10.98 9 -12 9 C-12 8.34 -12 7.68 -12 7 C-9.8828125 5.2734375 -9.8828125 5.2734375 -7.125 3.375 C-6.22007813 2.74335937 -5.31515625 2.11171875 -4.3828125 1.4609375 C-2 0 -2 0 0 0 Z " fill="#9B3D47" transform="translate(59,68)"/>
<path d="M0 0 C6.57714754 2.12790067 10.94758414 6.54482481 15 12 C14.67 12.66 14.34 13.32 14 14 C9.23529412 11.61764706 9.23529412 11.61764706 8 8.375 C7.505 7.199375 7.505 7.199375 7 6 C6.175 5.835 5.35 5.67 4.5 5.5 C3.675 5.335 2.85 5.17 2 5 C0.6875 2.4375 0.6875 2.4375 0 0 Z " fill="#A1525C" transform="translate(194,69)"/>
<path d="M0 0 C2.12969485 3.19454228 2.2390304 3.49146925 1.6875 7 C1.58824219 7.680625 1.48898438 8.36125 1.38671875 9.0625 C1 11 1 11 0 14 C-0.66 14 -1.32 14 -2 14 C-2.24915939 12.23186888 -2.47366632 10.46025018 -2.6875 8.6875 C-2.81511719 7.70136719 -2.94273437 6.71523437 -3.07421875 5.69921875 C-3 3 -3 3 -1.51953125 1.14453125 C-1.01808594 0.76683594 -0.51664063 0.38914062 0 0 Z " fill="#94363F" transform="translate(215,126)"/>
<path d="M0 0 C0.66 0.33 1.32 0.66 2 1 C-1.32307692 6.78461538 -1.32307692 6.78461538 -4.75 7.875 C-5.4925 7.91625 -6.235 7.9575 -7 8 C-7.33 8.99 -7.66 9.98 -8 11 C-8.66 11 -9.32 11 -10 11 C-10.66 12.98 -11.32 14.96 -12 17 C-12.33 16.01 -12.66 15.02 -13 14 C-9.97844002 8.09422367 -5.01244997 4.21988309 0 0 Z " fill="#CB2A38" transform="translate(144,79)"/>
<path d="M0 0 C0.66 0.33 1.32 0.66 2 1 C0.47987323 6.40489519 -3.27385218 9.98492628 -7 14 C-7.33 12.68 -7.66 11.36 -8 10 C-7.01 9.67 -6.02 9.34 -5 9 C-5 7.68 -5 6.36 -5 5 C-2.5 2.25 -2.5 2.25 0 0 Z " fill="#45805F" transform="translate(201,39)"/>
<path d="M0 0 C3.32494886 2.98098864 5.42411818 5.79764848 7 10 C6.1875 12.375 6.1875 12.375 5 14 C4.566875 12.88625 4.13375 11.7725 3.6875 10.625 C2.30088881 6.82487666 2.30088881 6.82487666 -1 5 C-0.67 3.35 -0.34 1.7 0 0 Z " fill="#4B8366" transform="translate(117,33)"/>
<path d="M0 0 C-1.51890531 4.55671592 -3.95402262 8.31723292 -7 12 C-7.33 12 -7.66 12 -8 12 C-8.35671933 8.16526716 -8.29771416 6.44657125 -6.125 3.1875 C-3.02857143 0 -3.02857143 0 0 0 Z " fill="#F57277" transform="translate(95,167)"/>
<path d="M0 0 C2.70886941 0.16798262 2.70886941 0.16798262 5 0 C5.33 0.99 5.66 1.98 6 3 C5.42894531 2.86722656 4.85789062 2.73445313 4.26953125 2.59765625 C-2.79328805 1.05933154 -9.79139345 0.42935274 -17 0 C-17 -0.33 -17 -0.66 -17 -1 C-10.81110331 -2.50033859 -5.86131168 -2.46792071 0 0 Z " fill="#A0121D" transform="translate(95,73)"/>
<path d="M0 0 C-1.27004977 3.81014932 -2.51113397 4.17627457 -6 6 C-6.86625 6.33 -7.7325 6.66 -8.625 7 C-11.04230145 8.01781114 -12.30262899 9.03462304 -14 11 C-14.66 10.67 -15.32 10.34 -16 10 C-4.95890411 0 -4.95890411 0 0 0 Z " fill="#69997C" transform="translate(156,26)"/>
<path d="M0 0 C1.9375 0.6875 1.9375 0.6875 4 2 C4.75 4.625 4.75 4.625 5 7 C5.66 7 6.32 7 7 7 C7 7.66 7 8.32 7 9 C7.99 9.33 8.98 9.66 10 10 C9.67 11.32 9.34 12.64 9 14 C7.49412261 12.04594482 5.99521356 10.08718716 4.5 8.125 C4.07074219 7.56941406 3.64148437 7.01382813 3.19921875 6.44140625 C0 2.2265625 0 2.2265625 0 0 Z " fill="#A95F67" transform="translate(48,160)"/>
<path d="M0 0 C0.33 0 0.66 0 1 0 C1.20086443 3.71599191 1.1519437 4.77208445 -1 8 C-1.66 8 -2.32 8 -3 8 C-3 9.32 -3 10.64 -3 12 C-3.99 12 -4.98 12 -6 12 C-5.55166054 7.0682659 -3.13973905 3.6807076 0 0 Z " fill="#A2565F" transform="translate(44,79)"/>
<path d="M0 0 C3 2 3 2 5 5 C5.4140625 8.13671875 5.4140625 8.13671875 5.625 11.6875 C5.69976562 12.86699219 5.77453125 14.04648438 5.8515625 15.26171875 C5.90054688 16.16535156 5.94953125 17.06898437 6 18 C4.36798362 14.89034717 3.08562641 11.73309413 1.875 8.4375 C1.34519531 7.01244141 1.34519531 7.01244141 0.8046875 5.55859375 C0 3 0 3 0 0 Z " fill="#6E9D82" transform="translate(116,53)"/>
<path d="M0 0 C0 0.66 0 1.32 0 2 C-4.69631716 4.49491849 -7.93629825 3.99613805 -13 3 C-13.66 2.34 -14.32 1.68 -15 1 C-12.8750734 0.83240016 -10.75005624 0.66594799 -8.625 0.5 C-7.44164063 0.4071875 -6.25828125 0.314375 -5.0390625 0.21875 C-3.36213157 0.09804546 -1.68126944 0 0 0 Z " fill="#A26269" transform="translate(133,228)"/>
<path d="M0 0 C4.60853797 0.72008406 8.67237409 2.31295939 13 4 C12.67 4.66 12.34 5.32 12 6 C10.68 6 9.36 6 8 6 C8 5.34 8 4.68 8 4 C6.68 3.67 5.36 3.34 4 3 C4 3.66 4 4.32 4 5 C3.34 5 2.68 5 2 5 C2 4.01 2 3.02 2 2 C1.34 2 0.68 2 0 2 C0 1.34 0 0.68 0 0 Z " fill="#925355" transform="translate(177,62)"/>
<path d="M0 0 C0.66 0.33 1.32 0.66 2 1 C2.4140625 3.50390625 2.4140625 3.50390625 2.625 6.5625 C2.69976562 7.57441406 2.77453125 8.58632812 2.8515625 9.62890625 C2.92503906 10.80259766 2.92503906 10.80259766 3 12 C1.68 12.33 0.36 12.66 -1 13 C-0.67 8.71 -0.34 4.42 0 0 Z " fill="#9D121F" transform="translate(121,94)"/>
<path d="M0 0 C0.33 0.66 0.66 1.32 1 2 C-1.84986801 6.34979853 -5.10468235 8.36822745 -10 10 C-8.5741914 6.54804233 -6.90253666 4.8985744 -3.875 2.75 C-3.15054688 2.22921875 -2.42609375 1.7084375 -1.6796875 1.171875 C-1.12539062 0.78515625 -0.57109375 0.3984375 0 0 Z " fill="#D1333D" transform="translate(74,85)"/>
<path d="M0 0 C0.598125 0.20625 1.19625 0.4125 1.8125 0.625 C1.8125 1.615 1.8125 2.605 1.8125 3.625 C-0.54188733 5.05444945 -1.66782433 5.71161261 -4.4375 5.25 C-5.015 5.04375 -5.5925 4.8375 -6.1875 4.625 C-5.03076352 1.15479057 -3.91311293 -0.67081936 0 0 Z " fill="#E8847F" transform="translate(66.1875,86.375)"/>
<path d="M0 0 C4.95 0.99 4.95 0.99 10 2 C10 1.34 10 0.68 10 0 C11.65 0 13.3 0 15 0 C13.20116115 2.29851631 12.01463951 2.99544549 9.1875 3.875 C5.32231619 4.02657584 3.28390965 2.95470812 0 1 C0 0.67 0 0.34 0 0 Z " fill="#C52B37" transform="translate(118,218)"/>
<path d="M0 0 C1.88391785 3.26545761 2.49287967 6.28111761 3 10 C2.34 10 1.68 10 1 10 C-0.38232443 8.37373596 -1.71937515 6.7074998 -3 5 C-2.34 4.67 -1.68 4.34 -1 4 C-0.34786708 1.97536745 -0.34786708 1.97536745 0 0 Z " fill="#923740" transform="translate(214,92)"/>
<path d="M0 0 C2.58926331 2.58926331 2.37398043 4.02705279 2.625 7.625 C2.69976562 8.62789062 2.77453125 9.63078125 2.8515625 10.6640625 C2.92503906 11.82035156 2.92503906 11.82035156 3 13 C-0.51187196 15.40814077 -2.72656908 16.36629408 -7 16 C-6.401875 15.71125 -5.80375 15.4225 -5.1875 15.125 C-2.80672208 13.95257974 -2.80672208 13.95257974 0 12 C0.36498034 9.10391601 0.36498034 9.10391601 0.1875 5.875 C0.16042969 4.77929688 0.13335937 3.68359375 0.10546875 2.5546875 C0.07066406 1.71164063 0.03585938 0.86859375 0 0 Z " fill="#920C17" transform="translate(201,104)"/>
<path d="M0 0 C0.33 0 0.66 0 1 0 C1.20674944 5.78898419 0.59162079 10.42932723 -1 16 C-2.32 16.33 -3.64 16.66 -5 17 C-4.67 15.68 -4.34 14.36 -4 13 C-3.34 13 -2.68 13 -2 13 C-1.34 8.71 -0.68 4.42 0 0 Z " fill="#C42030" transform="translate(194,134)"/>
<path d="M0 0 C0.66 0.33 1.32 0.66 2 1 C1.75 2.875 1.75 2.875 1 5 C-0.875 6.3125 -0.875 6.3125 -3 7 C-3.99 6.67 -4.98 6.34 -6 6 C-4 4 -2 2 0 0 Z " fill="#9E4652" transform="translate(138,71)"/>
<path d="M0 0 C2.86724686 0.57344937 3.8614515 0.8614515 6 3 C6.33 2.01 6.66 1.02 7 0 C7.33 2.64 7.66 5.28 8 8 C6.85073734 7.04578192 5.70569459 6.08647955 4.5625 5.125 C3.92441406 4.59132812 3.28632812 4.05765625 2.62890625 3.5078125 C1 2 1 2 0 0 Z " fill="#B1626A" transform="translate(71,190)"/>
<path d="M0 0 C-1.50223584 4.20626034 -4.28550034 5.73900021 -8 8 C-7.67 6.68 -7.34 5.36 -7 4 C-6.34 4 -5.68 4 -5 4 C-5 3.01 -5 2.02 -5 1 C-2 0 -2 0 0 0 Z " fill="#9F5156" transform="translate(155,212)"/>
<path d="M0 0 C5.03985731 0.44469329 7.37634988 2.71343362 11 6 C10.01 6.495 10.01 6.495 9 7 C8.34 6.67 7.68 6.34 7 6 C7 5.34 7 4.68 7 4 C4.69 3.34 2.38 2.68 0 2 C0 1.34 0 0.68 0 0 Z " fill="#CB2C38" transform="translate(156,161)"/>
<path d="M0 0 C0.66 0.33 1.32 0.66 2 1 C1.34 1.66 0.68 2.32 0 3 C-0.39764263 4.98821313 -0.73775349 6.98944339 -1 9 C-1.99 9.33 -2.98 9.66 -4 10 C-4.66 9.34 -5.32 8.68 -6 8 C-5.01 8 -4.02 8 -3 8 C-3.061875 7.05125 -3.12375 6.1025 -3.1875 5.125 C-3.125625 4.09375 -3.06375 3.0625 -3 2 C-2.01 1.34 -1.02 0.68 0 0 Z " fill="#8B212F" transform="translate(48,76)"/>
<path d="M0 0 C2.125 0.375 2.125 0.375 4 1 C4 2.32 4 3.64 4 5 C4.66 5.33 5.32 5.66 6 6 C5.01 6.495 5.01 6.495 4 7 C2.02 5.35 0.04 3.7 -2 2 C-1.34 1.34 -0.68 0.68 0 0 Z " fill="#A34F59" transform="translate(90,205)"/>
<path d="M0 0 C0.66 0.33 1.32 0.66 2 1 C1.60196439 3.88575819 1.20990931 4.82189513 -1.0625 6.75 C-1.701875 7.1625 -2.34125 7.575 -3 8 C-3 7.34 -3 6.68 -3 6 C-3.66 5.67 -4.32 5.34 -5 5 C-3.68 4.67 -2.36 4.34 -1 4 C-0.67 2.68 -0.34 1.36 0 0 Z " fill="#A04D56" transform="translate(166,199)"/>
<path d="M0 0 C1.45792884 -0.05399736 2.91642712 -0.09279177 4.375 -0.125 C5.18710938 -0.14820312 5.99921875 -0.17140625 6.8359375 -0.1953125 C9 0 9 0 11 2 C5.06 2.495 5.06 2.495 -1 3 C-0.67 2.01 -0.34 1.02 0 0 Z " fill="#C32834" transform="translate(170,119)"/>
<path d="M0 0 C0.99 0 1.98 0 3 0 C3.33 0.66 3.66 1.32 4 2 C4.99 2.33 5.98 2.66 7 3 C6.67 4.65 6.34 6.3 6 8 C3.33264727 5.51047079 1.44253657 3.36591866 0 0 Z " fill="#4B8765" transform="translate(108,41)"/>
<path d="M0 0 C3.3125 -0.25 3.3125 -0.25 7 0 C8.9375 2 8.9375 2 10 4 C9.01 4 8.02 4 7 4 C6.67 3.67 6.34 3.34 6 3 C3.67182036 2.63239269 1.3381615 2.29758419 -1 2 C-0.67 1.34 -0.34 0.68 0 0 Z " fill="#4D8165" transform="translate(101,22)"/>
<path d="M0 0 C2.97 0.33 5.94 0.66 9 1 C6.62216162 3.37783838 5.27926335 3.59009208 2 4 C1.34 3.67 0.68 3.34 0 3 C0 2.01 0 1.02 0 0 Z " fill="#377654" transform="translate(186,22)"/>
<path d="M0 0 C0.99 0.33 1.98 0.66 3 1 C3.33 2.65 3.66 4.3 4 6 C4.66 6 5.32 6 6 6 C5.67 7.32 5.34 8.64 5 10 C4.16121545 8.71186658 3.32913217 7.41936744 2.5 6.125 C2.0359375 5.40570313 1.571875 4.68640625 1.09375 3.9453125 C0 2 0 2 0 0 Z " fill="#AE676E" transform="translate(42,150)"/>
<path d="M0 0 C1.98 0 3.96 0 6 0 C6 0.33 6 0.66 6 1 C4.35 1 2.7 1 1 1 C1.185625 1.639375 1.37125 2.27875 1.5625 2.9375 C1.706875 3.618125 1.85125 4.29875 2 5 C1 6 1 6 -2.0625 6.0625 C-3.5165625 6.0315625 -3.5165625 6.0315625 -5 6 C-3.68 5.67 -2.36 5.34 -1 5 C-0.67 3.35 -0.34 1.7 0 0 Z " fill="#2F653F" transform="translate(176,61)"/>
<path d="M0 0 C0.99 0 1.98 0 3 0 C6 5.625 6 5.625 6 9 C4.99105628 8.07213211 3.99309093 7.13231567 3 6.1875 C2.1646875 5.40439453 2.1646875 5.40439453 1.3125 4.60546875 C0 3 0 3 0 0 Z " fill="#C82A36" transform="translate(105,150)"/>
<path d="M0 0 C0.99 0.33 1.98 0.66 3 1 C1.35 2.98 -0.3 4.96 -2 7 C-3.65 6.67 -5.3 6.34 -7 6 C-6.401875 5.566875 -5.80375 5.13375 -5.1875 4.6875 C-3.29216913 3.22538761 -1.6471407 1.72949773 0 0 Z " fill="#D0333A" transform="translate(85,78)"/>
<path d="M0 0 C-5.445 2.475 -5.445 2.475 -11 5 C-11.66 4.34 -12.32 3.68 -13 3 C-11.40084119 2.30093058 -9.79544955 1.61610532 -8.1875 0.9375 C-7.29417969 0.55464844 -6.40085937 0.17179687 -5.48046875 -0.22265625 C-3 -1 -3 -1 0 0 Z " fill="#A45E65" transform="translate(72,64)"/>
<path d="M0 0 C2.16874252 0.50603992 3.99967627 0.99983813 6 2 C5.25 7.75 5.25 7.75 3 10 C3.0928125 8.63875 3.0928125 8.63875 3.1875 7.25 C2.98327924 3.71017358 2.35448165 2.55068845 0 0 Z " fill="#95B9A1" transform="translate(202,26)"/>
<path d="M0 0 C0.99 0.33 1.98 0.66 3 1 C2.625 3.4375 2.625 3.4375 2 6 C1.01 6.495 1.01 6.495 0 7 C-0.93423645 3.98968256 -1.04449911 3.13349732 0 0 Z " fill="#98313D" transform="translate(168,195)"/>
<path d="M0 0 C4.35535069 1.16142685 6.64619703 2.07699505 9 6 C6.07606119 5.37344168 3.55170871 4.5838192 1 3 C0.67 2.01 0.34 1.02 0 0 Z " fill="#CE2C38" transform="translate(179,80)"/>
<path d="M0 0 C3.3 0 6.6 0 10 0 C9.67 0.99 9.34 1.98 9 3 C6.9375 3.6875 6.9375 3.6875 5 4 C5.33 3.01 5.66 2.02 6 1 C4.02 1 2.04 1 0 1 C0 0.67 0 0.34 0 0 Z " fill="#F46E72" transform="translate(75,78)"/>
<path d="M0 0 C1.55078125 1.17578125 1.55078125 1.17578125 3 3 C2.85546875 5.48046875 2.85546875 5.48046875 2.1875 8.1875 C1.97480469 9.08855469 1.76210937 9.98960938 1.54296875 10.91796875 C1.27419922 11.94857422 1.27419922 11.94857422 1 13 C0.1276588 10.00519083 -0.10829766 7.36424089 -0.0625 4.25 C-0.05347656 3.45078125 -0.04445312 2.6515625 -0.03515625 1.828125 C-0.02355469 1.22484375 -0.01195312 0.6215625 0 0 Z " fill="#336C4B" transform="translate(203,27)"/>
<path d="M0 0 C1.65 0 3.3 0 5 0 C1.67692308 3.93846154 1.67692308 3.93846154 -1.75 4.25 C-2.4925 4.1675 -3.235 4.085 -4 4 C-3.01 3.67 -2.02 3.34 -1 3 C-0.67 2.01 -0.34 1.02 0 0 Z " fill="#CF2C39" transform="translate(64,113)"/>
<path d="M0 0 C1 3 1 3 0 5.0625 C-0.33 5.701875 -0.66 6.34125 -1 7 C-0.67 7.66 -0.34 8.32 0 9 C-1.32 9 -2.64 9 -4 9 C-3.35455571 5.51460083 -1.89865603 2.97180943 0 0 Z " fill="#4C985B" transform="translate(140,59)"/>
<path d="M0 0 C0.99 0.66 1.98 1.32 3 2 C0.69 3.65 -1.62 5.3 -4 7 C-4.33 6.01 -4.66 5.02 -5 4 C-3.35 3.67 -1.7 3.34 0 3 C0 2.01 0 1.02 0 0 Z " fill="#598B6F" transform="translate(190,52)"/>
<path d="M0 0 C1.98 1.65 3.96 3.3 6 5 C5.67 5.66 5.34 6.32 5 7 C2.5 5.75 2.5 5.75 0 4 C0 2.68 0 1.36 0 0 Z " fill="#568B6D" transform="translate(111,26)"/>
<path d="M0 0 C0.66 0 1.32 0 2 0 C2 0.99 2 1.98 2 3 C3.32 3.66 4.64 4.32 6 5 C5.34 5.66 4.68 6.32 4 7 C2.35 5.02 0.7 3.04 -1 1 C-0.67 0.67 -0.34 0.34 0 0 Z " fill="#A75E65" transform="translate(64,180)"/>
<path d="M0 0 C0.99 0 1.98 0 3 0 C3.66 1.98 4.32 3.96 5 6 C3.02 4.68 1.04 3.36 -1 2 C-0.67 1.34 -0.34 0.68 0 0 Z " fill="#960E1A" transform="translate(186,81)"/>
<path d="M0 0 C-0.33 0.99 -0.66 1.98 -1 3 C-3.31 2.67 -5.62 2.34 -8 2 C-4.91190305 0.23537317 -3.76687864 0 0 0 Z " fill="#3F7558" transform="translate(170,22)"/>
</svg>